# xmcd
# 
# Track frame offsets:
#     150
#     21677
#     44859
#     69118
#     85811
#     107110
#     131481
#     156206
#     184008
#     202518
# 
# Disc length: 3186
# 
# Revision: 1
# Processed by: cddbd v1.5.2PL0 Copyright (c) Steve Scherf et al.
# Submitted via: fre:ac v1.0.17
# 
DISCID=830c700a
DTITLE=Nils Wülker - 6
DYEAR=2010
DGENRE=Jazz
TTITLE0=Fast Forward
TTITLE1=Running Circles
TTITLE2=Magnet
TTITLE3=Easy
TTITLE4=Sidestep
TTITLE5=Runout
TTITLE6=The Extra Mile
TTITLE7=Threesomething
TTITLE8=Perspective
TTITLE9=Outbound
EXTD=YEAR: 2010
EXTT0=
EXTT1=
EXTT2=
EXTT3=
EXTT4=
EXTT5=
EXTT6=
EXTT7=
EXTT8=
EXTT9=
PLAYORDER=
